<svg xmlns="http://www.w3.org/2000/svg" width="22" height="15.4" viewBox="0 0 22 15.4"><path d="M6.6,9.95A3.85,3.85,0,1,0,2.75,6.1,3.848,3.848,0,0,0,6.6,9.95Zm2.64,1.1H8.955a5.316,5.316,0,0,1-4.709,0H3.96A3.961,3.961,0,0,0,0,15.01V16a1.65,1.65,0,0,0,1.65,1.65h9.9A1.65,1.65,0,0,0,13.2,16v-.99A3.961,3.961,0,0,0,9.24,11.05Zm7.26-1.1a3.3,3.3,0,1,0-3.3-3.3A3.3,3.3,0,0,0,16.5,9.95Zm1.65,1.1h-.131a4.335,4.335,0,0,1-3.039,0H14.85a3.818,3.818,0,0,0-1.915.529A5.031,5.031,0,0,1,14.3,15.01v1.32c0,.076-.017.148-.021.22H20.35A1.65,1.65,0,0,0,22,14.9a3.848,3.848,0,0,0-3.85-3.85Z" transform="translate(0 -2.25)"/></svg>